Coordinates
version=1
nRows=17
nColumns=24
inDegrees=yes

Units are S.I. units (second, meters, Newtons, ...)
Angles are in degrees.

endheader
time	pelvis_tilt	pelvis_list	pelvis_rotation	pelvis_tx	pelvis_ty	pelvis_tz	hip_flexion_r	hip_adduction_r	hip_rotation_r	knee_angle_r	ankle_angle_r	subtalar_angle_r	mtp_angle_r	hip_flexion_l	hip_adduction_l	hip_rotation_l	knee_angle_l	ankle_angle_l	subtalar_angle_l	mtp_angle_l	lumbar_extension	lumbar_bending	lumbar_rotation
      2.29000000	     24.57146533	     -1.57160605	     -2.43325754	      0.66086805	      0.89585425	      0.00119224	    -37.27825348	      0.62032329	     -1.83191627	    -34.48511056	     -4.05656711	     18.43883708	     50.92695414	    -10.77546353	      3.93127618	     18.22652576	     -9.83343727	    -10.49428102	    -37.41776798	     23.16016680	    -27.48844873	     -1.65626981	      7.11402514
      2.29500000	     24.42567900	     -1.18267049	     -1.99920182	      0.66800391	      0.89654960	      0.00010857	    -36.50124059	      0.16939080	     -3.34089422	    -36.06750846	     -5.26965596	     18.35542677	     50.89023071	    -11.22404682	      4.26957524	     18.73348996	     -9.56574151	    -10.20410185	    -37.28436277	     23.06378842	    -27.20167599	     -1.90955647	      6.45013143
      2.30000000	     24.29360710	     -0.82579212	     -1.57022183	      0.67506883	      0.89724014	     -0.00098374	    -35.74617551	     -0.28198475	     -4.78330091	    -37.60155508	     -6.30235178	     18.17254519	     50.80395396	    -11.69766199	      4.56647655	     19.15607567	     -9.28224632	     -9.93110568	    -37.17121604	     22.99182986	    -26.94127747	     -2.13425628	      5.81080511
      2.30500000	     24.13951023	     -0.50468957	     -1.11782337	      0.68200648	      0.89789228	     -0.00214562	    -34.96815336	     -0.69483715	     -6.11820963	    -39.08976053	     -7.14654945	     17.87459521	     50.63537212	    -12.16312100	      4.81449161	     19.67282937	     -8.96455661	     -9.59912606	    -37.08865365	     22.89078026	    -26.67781009	     -2.30907931	      5.15647001
      2.31000000	     24.00130810	     -0.22960468	     -0.64457599	      0.68884692	      0.89857292	     -0.00334671	    -34.22170849	     -1.05960541	     -7.37983928	    -40.48988111	     -7.81327875	     17.40716138	     50.38162640	    -12.65067058	      5.00151784	     20.15507410	     -8.63569498	     -9.30381581	    -37.00065990	     22.78570290	    -26.44500898	     -2.42690131	      4.50875358
      2.31500000	     23.88280367	      0.01702797	     -0.16830824	      0.69554474	      0.89926780	     -0.00457611	    -33.48901038	     -1.40681594	     -8.56186403	    -41.86337937	     -8.16236870	     17.09677430	     47.32546235	    -13.16771954	      5.15227610	     20.65021780	     -8.28636880	     -8.96712613	    -36.87272814	     21.13005749	    -26.25151283	     -2.51311901	      3.86883797
      2.32000000	     23.77007258	      0.20557110	      0.35116559	      0.70212817	      0.89996285	     -0.00584004	    -32.78398900	     -1.66183740	     -9.67450117	    -43.09827821	     -8.40891550	     16.40712786	     47.19846755	    -13.67806063	      5.21815820	     21.12977902	     -7.94922974	     -8.63154622	    -36.71064384	     21.13636008	    -26.07898565	     -2.52327103	      3.20749789
      2.32500000	     23.66645245	      0.34666075	      0.89001493	      0.70855338	      0.90066525	     -0.00714519	    -32.08324288	     -1.86018525	    -10.72313731	    -44.25863529	     -8.48086163	     15.63102642	     46.94791513	    -14.19020059	      5.22284481	     21.62394351	     -7.61163073	     -8.32435164	    -36.58896579	     21.12102459	    -25.93485521	     -2.47387478	      2.57003920
      2.33000000	     23.56704908	      0.45655891	      1.45599816	      0.71485520	      0.90136174	     -0.00848425	    -31.39190648	     -2.00888584	    -11.72153077	    -45.32590211	     -8.34990078	     14.85231066	     46.60904369	    -14.70089217	      5.17864889	     22.13309319	     -7.26815278	     -8.03591321	    -36.49748546	     21.09963151	    -25.80658321	     -2.37992969	      1.88919835
      2.33500000	     23.52156672	      0.55973683	      2.05485094	      0.72098793	      0.90210046	     -0.00988565	    -30.76962524	     -2.14504062	    -12.74475104	    -46.29834464	     -7.96244541	     14.15541293	     46.36643334	    -15.25277924	      5.11108849	     22.64947825	     -6.93847868	     -7.81643994	    -36.37706398	     21.10333629	    -25.75561867	     -2.26021714	      1.21993113
      2.34000000	     23.42930455	      0.60146312	      2.68309499	      0.72692226	      0.90277431	     -0.01134821	    -30.05976115	     -2.19662290	    -13.67089020	    -47.25416889	     -7.30781199	     13.62913347	     42.17345977	    -15.76196834	      4.96546532	     23.36219303	     -6.55431007	     -7.73550727	    -36.63258823	     20.49224810	    -25.67207911	     -2.06084149	      0.52461892
      2.34500000	     23.35822060	      0.62978235	      3.33795620	      0.73271992	      0.90344476	     -0.01281716	    -29.39137669	     -2.21422056	    -14.59419744	    -48.06051625	     -6.52763399	     12.89781973	     42.07846873	    -16.22696719	      4.79581163	     23.92270073	     -6.29685975	     -7.41534779	    -36.46954868	     20.53106154	    -25.62188066	     -1.83678822	     -0.16800494
      2.35000000	     23.25765630	      0.62935365	      4.01808756	      0.73833784	      0.90406820	     -0.01431390	    -28.66724434	     -2.18579823	    -15.47690582	    -48.79887776	     -5.73713280	     12.04468243	     41.83754083	    -16.65052265	      4.57926190	     24.59428596	     -6.02138057	     -7.11530197	    -36.37851157	     20.54336386	    -25.55565505	     -1.57190233	     -0.89877890
      2.35500000	     23.21542114	      0.61436873	      4.74377234	      0.74375386	      0.90472840	     -0.01589595	    -28.01780882	     -2.12293026	    -16.38893016	    -49.41834267	     -4.70597584	     11.27988507	     41.61224919	    -17.09501629	      4.33455215	     25.28069018	     -5.80262765	     -6.88285471	    -36.32609385	     20.54804818	    -25.56997540	     -1.26126372	     -1.61050575
      2.36000000	     23.09862754	      0.58233859	      5.49787901	      0.74898259	      0.90526220	     -0.01755005	    -27.24869046	     -2.04211823	    -17.26193678	    -50.03837056	     -3.42500985	     10.83652417	     38.08953993	    -17.48850515	      4.05732806	     26.29395394	     -5.46384067	     -7.05786574	    -37.01425516	     20.09956501	    -25.51649162	     -0.92119343	     -2.38083380
      2.36500000	     23.05064603	      0.54960163	      6.23069877	      0.75410791	      0.90586219	     -0.01909430	    -26.56722039	     -1.94977900	    -18.11210505	    -50.50206613	     -2.19575769	      9.99000863	     37.97061894	    -17.87576605	      3.77579109	     26.99353662	     -5.29366474	     -6.75528787	    -36.84744176	     20.14276927	    -25.54290670	     -0.58737807	     -3.09938368
      2.37000000	     22.94633251	      0.49092779	      6.97001632	      0.75911766	      0.90637012	     -0.02064442	    -25.79890998	     -1.82735624	    -18.90390495	    -50.90134631	     -0.97485562	      9.10615273	     37.68455032	    -18.19979224	      3.45927407	     27.80596673	     -5.08605337	     -6.50747760	    -36.82631582	     20.14299584	    -25.51267837	     -0.22464761	     -3.85827786
